HIERARCHY
ROOT mixamorig:Hips
{
	OFFSET 0.000000 201.639420 0.000000
	CHANNELS 6 Xposition Yposition Zposition Xrotation Yrotation Zrotation
	JOINT mixamorig:Spine
	{
		OFFSET 0.006200 19.524994 -2.481800
		CHANNELS 3 Xrotation Yrotation Zrotation
		JOINT mixamorig:Spine1
		{
			OFFSET -0.000900 22.835007 -2.825400
			CHANNELS 3 Xrotation Yrotation Zrotation
			JOINT mixamorig:Spine2
			{
				OFFSET -0.020600 26.552490 -3.193300
				CHANNELS 3 Xrotation Yrotation Zrotation
				JOINT mixamorig:Neck
				{
					OFFSET -0.060000 30.701813 1.352200
					CHANNELS 3 Xrotation Yrotation Zrotation
					JOINT mixamorig:Head
					{
						OFFSET -0.087200 22.547607 3.670900
						CHANNELS 3 Xrotation Yrotation Zrotation
						JOINT mixamorig:HeadTop_End
						{
							OFFSET -0.830600 40.355194 7.893500
							CHANNELS 3 Xrotation Yrotation Zrotation
							End Site
							{
								OFFSET 0.000000 30.592346 0.000000
							}
						}
						JOINT mixamorig:RightEye
						{
							OFFSET -6.302100 18.118591 16.197100
							CHANNELS 3 Xrotation Yrotation Zrotation
							End Site
							{
								OFFSET 0.000000 30.592346 0.000000
							}
						}
						JOINT mixamorig:LeftEye
						{
							OFFSET 6.741500 18.382690 16.401899
							CHANNELS 3 Xrotation Yrotation Zrotation
							End Site
							{
								OFFSET 0.000000 30.592346 0.000000
							}
						}
					}
				}
				JOINT mixamorig:LeftShoulder
				{
					OFFSET 11.924900 18.230499 1.425400
					CHANNELS 3 Xrotation Yrotation Zrotation
					JOINT mixamorig:LeftArm
					{
						OFFSET 25.435989 -0.697632 -5.229300
						CHANNELS 3 Xrotation Yrotation Zrotation
						JOINT mixamorig:LeftForeArm
						{
							OFFSET 54.684776 0.000000 0.000000
							CHANNELS 3 Xrotation Yrotation Zrotation
							JOINT mixamorig:LeftHand
							{
								OFFSET 55.098175 0.000000 0.000000
								CHANNELS 3 Xrotation Yrotation Zrotation
								JOINT mixamorig:LeftHandMiddle1
								{
									OFFSET 23.369751 0.000000 0.000000
									CHANNELS 3 Xrotation Yrotation Zrotation
									JOINT mixamorig:LeftHandMiddle2
									{
										OFFSET 6.378677 0.000000 0.000000
										CHANNELS 3 Xrotation Yrotation Zrotation
										JOINT mixamorig:LeftHandMiddle3
										{
											OFFSET 6.148331 0.000000 0.000000
											CHANNELS 3 Xrotation Yrotation Zrotation
											JOINT mixamorig:LeftHandMiddle4
											{
												OFFSET 6.582504 0.000000 0.000000
												CHANNELS 3 Xrotation Yrotation Zrotation
												End Site
												{
													OFFSET -1.168900 6.395691 1.028606
												}
											}
										}
									}
								}
								JOINT mixamorig:LeftHandThumb1
								{
									OFFSET 7.235672 -3.848206 5.434273
									CHANNELS 3 Xrotation Yrotation Zrotation
									JOINT mixamorig:LeftHandThumb2
									{
										OFFSET 6.568451 -3.792297 3.792300
										CHANNELS 3 Xrotation Yrotation Zrotation
										JOINT mixamorig:LeftHandThumb3
										{
											OFFSET 6.063080 -3.500519 3.500518
											CHANNELS 3 Xrotation Yrotation Zrotation
											JOINT mixamorig:LeftHandThumb4
											{
												OFFSET 4.793182 -2.767334 2.767349
												CHANNELS 3 Xrotation Yrotation Zrotation
												End Site
												{
													OFFSET 0.101639 6.054260 1.275483
												}
											}
										}
									}
								}
								JOINT mixamorig:LeftHandIndex1
								{
									OFFSET 23.101074 -0.309540 4.992809
									CHANNELS 3 Xrotation Yrotation Zrotation
									JOINT mixamorig:LeftHandIndex2
									{
										OFFSET 6.226883 0.000000 0.000000
										CHANNELS 3 Xrotation Yrotation Zrotation
										JOINT mixamorig:LeftHandIndex3
										{
											OFFSET 6.094330 0.000000 0.000000
											CHANNELS 3 Xrotation Yrotation Zrotation
											JOINT mixamorig:LeftHandIndex4
											{
												OFFSET 5.482605 0.000000 0.000000
												CHANNELS 3 Xrotation Yrotation Zrotation
												End Site
												{
													OFFSET -1.427902 5.233032 0.797164
												}
											}
										}
									}
								}
								JOINT mixamorig:LeftHandRing1
								{
									OFFSET 22.299240 0.021149 -3.964172
									CHANNELS 3 Xrotation Yrotation Zrotation
									JOINT mixamorig:LeftHandRing2
									{
										OFFSET 6.321869 0.000000 0.000000
										CHANNELS 3 Xrotation Yrotation Zrotation
										JOINT mixamorig:LeftHandRing3
										{
											OFFSET 5.899796 0.000000 0.000000
											CHANNELS 3 Xrotation Yrotation Zrotation
											JOINT mixamorig:LeftHandRing4
											{
												OFFSET 6.517899 0.000000 0.000000
												CHANNELS 3 Xrotation Yrotation Zrotation
												End Site
												{
													OFFSET -1.637299 6.232208 0.980890
												}
											}
										}
									}
								}
								JOINT mixamorig:LeftHandPinky1
								{
									OFFSET 20.463791 -0.302338 -8.562233
									CHANNELS 3 Xrotation Yrotation Zrotation
									JOINT mixamorig:LeftHandPinky2
									{
										OFFSET 6.908646 0.000000 0.000000
										CHANNELS 3 Xrotation Yrotation Zrotation
										JOINT mixamorig:LeftHandPinky3
										{
											OFFSET 4.622849 0.000000 0.000000
											CHANNELS 3 Xrotation Yrotation Zrotation
											JOINT mixamorig:LeftHandPinky4
											{
												OFFSET 5.216080 0.000000 0.000000
												CHANNELS 3 Xrotation Yrotation Zrotation
												End Site
												{
													OFFSET -0.606308 5.116241 0.814926
												}
											}
										}
									}
								}
							}
						}
					}
				}
				JOINT mixamorig:RightShoulder
				{
					OFFSET -12.001300 18.284088 1.348900
					CHANNELS 3 Xrotation Yrotation Zrotation
					JOINT mixamorig:RightArm
					{
						OFFSET -25.308500 -0.751312 -5.164599
						CHANNELS 3 Xrotation Yrotation Zrotation
						JOINT mixamorig:RightForeArm
						{
							OFFSET -54.684429 0.000000 0.000000
							CHANNELS 3 Xrotation Yrotation Zrotation
							JOINT mixamorig:RightHand
							{
								OFFSET -55.150291 0.000000 0.000000
								CHANNELS 3 Xrotation Yrotation Zrotation
								JOINT mixamorig:RightHandMiddle1
								{
									OFFSET -23.317566 0.000000 0.000000
									CHANNELS 3 Xrotation Yrotation Zrotation
									JOINT mixamorig:RightHandMiddle2
									{
										OFFSET -6.378403 0.000000 0.000000
										CHANNELS 3 Xrotation Yrotation Zrotation
										JOINT mixamorig:RightHandMiddle3
										{
											OFFSET -6.148193 0.000000 0.000000
											CHANNELS 3 Xrotation Yrotation Zrotation
											JOINT mixamorig:RightHandMiddle4
											{
												OFFSET -6.583389 0.000000 0.000000
												CHANNELS 3 Xrotation Yrotation Zrotation
												End Site
												{
													OFFSET 1.171692 6.395905 1.029786
												}
											}
										}
									}
								}
								JOINT mixamorig:RightHandThumb1
								{
									OFFSET -7.190521 -3.860474 5.435846
									CHANNELS 3 Xrotation Yrotation Zrotation
									JOINT mixamorig:RightHandThumb2
									{
										OFFSET -6.567429 -3.791718 3.791708
										CHANNELS 3 Xrotation Yrotation Zrotation
										JOINT mixamorig:RightHandThumb3
										{
											OFFSET -6.062469 -3.500153 3.500166
											CHANNELS 3 Xrotation Yrotation Zrotation
											JOINT mixamorig:RightHandThumb4
											{
												OFFSET -4.792618 -2.767029 2.767022
												CHANNELS 3 Xrotation Yrotation Zrotation
												End Site
												{
													OFFSET -0.100327 6.053253 1.276754
												}
											}
										}
									}
								}
								JOINT mixamorig:RightHandIndex1
								{
									OFFSET -23.048981 -0.310791 4.992554
									CHANNELS 3 Xrotation Yrotation Zrotation
									JOINT mixamorig:RightHandIndex2
									{
										OFFSET -6.227539 0.000000 0.000000
										CHANNELS 3 Xrotation Yrotation Zrotation
										JOINT mixamorig:RightHandIndex3
										{
											OFFSET -6.095047 0.000000 0.000000
											CHANNELS 3 Xrotation Yrotation Zrotation
											JOINT mixamorig:RightHandIndex4
											{
												OFFSET -5.484772 0.000000 0.000000
												CHANNELS 3 Xrotation Yrotation Zrotation
												End Site
												{
													OFFSET 1.420593 5.237305 0.797056
												}
											}
										}
									}
								}
								JOINT mixamorig:RightHandRing1
								{
									OFFSET -22.246323 0.020569 -3.963762
									CHANNELS 3 Xrotation Yrotation Zrotation
									JOINT mixamorig:RightHandRing2
									{
										OFFSET -6.322128 0.000000 0.000000
										CHANNELS 3 Xrotation Yrotation Zrotation
										JOINT mixamorig:RightHandRing3
										{
											OFFSET -5.900024 0.000000 0.000000
											CHANNELS 3 Xrotation Yrotation Zrotation
											JOINT mixamorig:RightHandRing4
											{
												OFFSET -6.518356 0.000000 0.000000
												CHANNELS 3 Xrotation Yrotation Zrotation
												End Site
												{
													OFFSET 1.636398 6.232697 0.982186
												}
											}
										}
									}
								}
								JOINT mixamorig:RightHandPinky1
								{
									OFFSET -20.411011 -0.303314 -8.561701
									CHANNELS 3 Xrotation Yrotation Zrotation
									JOINT mixamorig:RightHandPinky2
									{
										OFFSET -6.907349 0.000000 0.000000
										CHANNELS 3 Xrotation Yrotation Zrotation
										JOINT mixamorig:RightHandPinky3
										{
											OFFSET -4.623840 0.000000 0.000000
											CHANNELS 3 Xrotation Yrotation Zrotation
											JOINT mixamorig:RightHandPinky4
											{
												OFFSET -5.218353 0.000000 0.000000
												CHANNELS 3 Xrotation Yrotation Zrotation
												End Site
												{
													OFFSET 0.602097 5.118835 0.816273
												}
											}
										}
									}
								}
							}
						}
					}
				}
			}
		}
	}
	JOINT mixamorig:LeftUpLeg
	{
		OFFSET 18.168400 -13.561905 -0.039000
		CHANNELS 3 Xrotation Yrotation Zrotation
		JOINT mixamorig:LeftLeg
		{
			OFFSET 0.577358 -80.825211 -3.695000
			CHANNELS 3 Xrotation Yrotation Zrotation
			JOINT mixamorig:LeftFoot
			{
				OFFSET -0.577356 -83.370262 -6.520700
				CHANNELS 3 Xrotation Yrotation Zrotation
				JOINT mixamorig:LeftToeBase
				{
					OFFSET 0.750401 -20.798306 25.135401
					CHANNELS 3 Xrotation Yrotation Zrotation
					JOINT mixamorig:LeftToe_End
					{
						OFFSET -0.000500 0.001200 19.917799
						CHANNELS 3 Xrotation Yrotation Zrotation
						End Site
						{
							OFFSET 0.000000 19.917805 0.000000
						}
					}
				}
			}
		}
	}
	JOINT mixamorig:RightUpLeg
	{
		OFFSET -18.162500 -13.585098 -0.041000
		CHANNELS 3 Xrotation Yrotation Zrotation
		JOINT mixamorig:RightLeg
		{
			OFFSET -0.595024 -80.945297 -3.631900
			CHANNELS 3 Xrotation Yrotation Zrotation
			JOINT mixamorig:RightFoot
			{
				OFFSET 0.595024 -83.218193 -6.561200
				CHANNELS 3 Xrotation Yrotation Zrotation
				JOINT mixamorig:RightToeBase
				{
					OFFSET -0.753601 -20.807106 25.115000
					CHANNELS 3 Xrotation Yrotation Zrotation
					JOINT mixamorig:RightToe_End
					{
						OFFSET 0.000299 0.001700 19.918200
						CHANNELS 3 Xrotation Yrotation Zrotation
						End Site
						{
							OFFSET 0.000000 19.918203 0.000000
						}
					}
				}
			}
		}
	}
}
MOTION
Frames: 4
Frame Time: 0.033333
-95.682777 63.963821 375.513367 -77.457016 46.626577 -9.682719 0.047081 7.640184 2.242963 0.586969 9.013969 5.908559 0.707255 9.060056 5.818067 14.148683 6.890667 13.365359 -15.962912 16.396615 -11.533134 -0.000000 0.000000 -0.000000 -0.000000 0.000000 -0.000000 -0.000000 0.000000 -0.000000 5.089943 -6.510710 -2.408535 -32.562165 25.216087 -55.420657 0.000050 -99.773607 0.000054 26.664434 -10.956178 31.297532 0.333097 0.603093 17.408919 0.434186 2.215157 -22.176646 0.147930 1.309523 -12.889375 -0.000001 0.000001 0.000001 -18.490977 -9.743579 27.486618 13.697113 4.099640 -12.752684 -6.899091 -3.466450 12.925167 0.000002 -0.000000 0.000000 4.311323 -5.323757 13.609582 0.627889 2.640585 -26.746903 0.660466 2.704183 -27.445445 -0.000001 -0.000001 -0.000001 -0.454822 11.361193 3.730273 0.077867 0.953083 -9.342665 0.405929 2.144551 -21.433448 -0.000000 0.000002 -0.000002 1.891091 13.715419 -9.044597 0.020510 0.490319 -4.790265 0.049100 0.757690 -7.414971 0.000000 0.000002 -0.000002 -1.501476 36.358746 -21.452974 -63.189188 39.698063 89.413549 0.000039 74.510049 -0.000003 46.168742 14.728967 -11.424461 0.279234 -0.831359 -18.102679 0.128438 -1.087353 13.473355 0.000250 0.048082 -0.590328 0.000004 -0.000001 0.000002 -18.646495 11.728274 -26.974912 14.206559 -5.870998 12.185254 -4.909765 -2.464677 -14.577937 0.000002 -0.000000 0.000001 4.700793 5.797231 -25.892982 0.138412 -1.128156 13.989061 0.103706 -0.978356 12.100702 0.000001 -0.000001 -0.000001 0.727531 -12.085997 3.659108 0.016788 -0.395479 4.860708 0.023609 -0.468873 5.765673 0.000003 0.000001 0.000001 2.362061 -13.404041 11.920273 0.033668 -0.559517 6.885254 0.001395 0.113460 -1.393001 0.000000 0.000004 -0.000000 -132.768905 33.626319 -3.324847 75.248891 -0.770031 -9.045087 -6.966678 8.948225 -22.960470 11.903879 0.000006 0.000009 0.000002 -0.000002 0.000000 -107.826004 39.968785 -26.001156 23.200809 -7.208829 -4.090955 34.061153 -10.450869 19.737922 -2.804093 -0.000003 -0.000000 0.000000 0.000001 0.000003 
-101.449501 46.070099 361.460724 -89.767312 53.587424 2.113614 0.923883 6.777510 2.961250 2.277370 8.385274 6.173965 2.335872 8.416532 6.106056 12.020035 6.532769 20.872698 -9.222055 17.765981 -6.774315 -0.000000 0.000000 -0.000002 -0.000000 0.000000 -0.000002 -0.000000 0.000000 -0.000002 4.008180 -12.709193 -11.662318 -41.645087 12.586531 -69.063601 0.000009 -74.284236 0.000018 29.279727 -12.771010 40.162339 0.331911 0.606928 17.369630 0.452198 2.258863 -22.638737 0.155565 1.342427 -13.219171 0.000004 -0.000001 0.000002 -18.490966 -9.743566 27.486624 13.696610 4.099856 -12.751513 -6.776041 -3.463785 12.884860 -0.000001 0.000001 0.000001 4.292968 -5.106966 13.707378 0.654036 2.691792 -27.309125 0.685663 2.752139 -27.975162 0.000001 -0.000001 0.000000 -0.388991 11.331215 3.329979 0.082754 0.982268 -9.631320 0.423371 2.188449 -21.895068 -0.000003 0.000001 -0.000002 1.980123 13.509412 -9.735479 0.022385 0.512239 -5.005111 0.052298 0.781861 -7.652757 -0.000001 0.000000 0.000001 -4.616591 35.875678 -10.994871 -48.997909 34.743936 77.929569 0.000048 75.127573 -0.000054 62.976981 22.174143 -12.386246 0.279226 -0.831373 -18.102662 0.184927 -1.300708 16.183945 0.007902 -0.271468 3.334263 0.000001 0.000001 0.000002 -18.646502 11.728272 -26.974905 14.206512 -5.871013 12.186051 -4.909185 -2.464712 -14.577212 -0.000002 -0.000001 0.000001 4.580467 5.554748 -22.896910 0.234308 -1.460045 18.233190 0.207633 -1.376513 17.155963 0.000002 -0.000002 -0.000001 0.257821 -11.826266 0.885671 0.023258 -0.465446 5.723179 0.077446 -0.846694 10.452461 -0.000002 -0.000000 0.000000 2.100496 -13.345941 10.563675 0.021422 -0.446601 5.490803 0.000501 -0.069499 0.853117 -0.000001 -0.000001 0.000001 -124.956699 27.937818 -0.174335 81.066607 -1.168302 -9.075254 -11.758154 -6.724063 -20.055201 12.459475 0.000011 -0.000006 -0.000001 0.000001 0.000001 -104.254150 34.773842 -23.928700 23.422303 -7.878708 -5.748307 30.906821 -15.840175 21.554962 -7.843831 -0.000007 -0.000013 -0.000001 -0.000000 0.000000 
-105.830833 34.773315 353.566956 -98.039716 46.180217 10.187815 1.754841 7.144806 3.537859 4.040580 6.414214 5.407628 4.322771 6.460634 5.335892 10.925926 6.612823 19.824233 -2.479520 18.932333 -3.130444 0.000000 0.000000 -0.000002 0.000000 0.000000 -0.000002 0.000000 0.000000 -0.000002 4.880491 -14.514828 -5.009083 -48.521995 24.620213 -74.982063 0.000006 -48.890918 -0.000000 42.353467 -7.603456 49.867143 0.331911 0.606934 17.369625 0.452218 2.258873 -22.638739 0.155554 1.342416 -13.219150 -0.000002 -0.000001 0.000000 -18.490958 -9.743571 27.486636 13.696133 4.100108 -12.750263 -6.776046 -3.463803 12.884876 0.000002 -0.000000 -0.000003 4.292362 -5.107703 13.707291 0.654035 2.691784 -27.309096 0.685639 2.752077 -27.974600 -0.000000 -0.000001 0.000001 -0.389007 11.331593 3.330029 0.082748 0.982252 -9.631303 0.423368 2.188455 -21.895080 -0.000002 -0.000001 -0.000000 1.980114 13.509403 -9.735488 0.022383 0.512245 -5.005105 0.052287 0.781854 -7.652759 0.000003 0.000002 -0.000002 -6.532665 35.896408 -2.069386 -44.513405 31.105535 68.498301 0.000006 72.528481 -0.000007 53.877902 14.687596 -0.399055 0.279224 -0.831352 -18.102696 0.253696 -1.517578 18.978495 0.039829 -0.608502 7.491317 0.000005 0.000003 0.000001 -18.646497 11.728294 -26.974912 14.205543 -5.871350 12.185823 -4.908852 -2.464911 -14.576184 0.000000 0.000001 0.000001 4.467406 5.288169 -19.556647 0.351452 -1.776498 22.379456 0.342697 -1.755064 22.094871 0.000003 0.000001 0.000002 -0.135225 -11.566367 -1.511600 0.034693 -0.567931 6.989297 0.165830 -1.233063 15.321040 -0.000002 -0.000003 0.000001 1.914929 -13.282003 9.615411 0.015323 -0.377784 4.642662 0.008458 -0.280873 3.450006 0.000000 -0.000001 0.000002 -123.290338 12.543382 11.982746 83.081533 -7.300494 -9.318817 -11.422689 -7.097464 -0.741713 9.164750 -0.000000 -0.000003 0.000002 0.000001 -0.000000 -105.378850 20.452277 -11.073828 17.751143 -6.510653 -3.938770 30.871960 -9.880597 15.402874 -5.932809 0.000005 0.000000 0.000001 0.000000 -0.000001 
-108.542542 28.679779 349.894165 -91.799819 40.613609 12.203024 1.573707 7.711071 3.516647 5.114392 3.056479 3.249916 4.262970 3.132497 3.199286 5.708883 8.005905 13.384229 0.752209 25.677393 -11.693841 0.000000 -0.000000 0.000002 0.000000 -0.000000 0.000002 0.000000 -0.000000 0.000002 5.436808 -13.368444 0.047227 -50.233753 25.378184 -73.908234 0.000001 -50.338453 -0.000004 39.756940 -9.544907 50.202676 0.331907 0.606937 17.369641 0.452215 2.258871 -22.638742 0.155559 1.342427 -13.219163 -0.000000 0.000001 0.000002 -18.490978 -9.743591 27.486636 13.695713 4.100310 -12.749006 -6.776048 -3.463781 12.884869 0.000004 0.000002 0.000000 4.290954 -5.109338 13.707097 0.654043 2.691792 -27.309111 0.685579 2.751972 -27.973327 -0.000000 -0.000001 -0.000001 -0.389066 11.332431 3.330123 0.082741 0.982243 -9.631304 0.423369 2.188453 -21.895073 -0.000001 -0.000001 -0.000000 1.980124 13.509407 -9.735478 0.022372 0.512240 -5.005110 0.052300 0.781853 -7.652758 0.000003 0.000002 0.000000 0.732775 33.651966 -13.473941 -47.447115 34.274948 64.543088 0.000050 74.121636 -0.000054 22.715012 -6.334433 8.742051 0.279240 -0.831367 -18.102675 0.326479 -1.714647 21.559861 0.093075 -0.927328 11.460701 0.000002 -0.000002 0.000001 -18.646476 11.728264 -26.974898 14.203773 -5.872053 12.184453 -4.908829 -2.465262 -14.574574 -0.000002 0.000002 0.000001 4.376370 5.025045 -16.176652 0.470196 -2.041014 25.942694 0.484411 -2.069994 26.339520 0.000001 0.000004 0.000000 -0.415462 -11.342934 -3.281062 0.053229 -0.702824 8.660944 0.278646 -1.588282 19.899874 0.000002 0.000000 0.000002 1.829533 -13.221093 9.205627 0.015192 -0.376287 4.624204 0.027670 -0.507638 6.244147 0.000002 -0.000003 0.000000 -124.551259 -3.836250 23.438984 83.441990 -6.125950 -9.337193 -12.864292 -6.834873 7.419788 4.857970 -0.000010 -0.000018 -0.000004 0.000001 0.000000 -121.390985 9.795044 1.286157 32.564764 -4.641155 0.289142 31.551062 -1.519257 12.089967 -5.410312 -0.000002 -0.000019 -0.000000 -0.000001 0.000001 
